# xmcd CD database file
#
# Track frame offsets:
#	150
#	15016
#	27701
#	41829
#	54110
#	78423
#	91617
#	110371
#	124496
#	136908
#	153283
#	166553
#
# Disc length: 2382 seconds
#
# Revision: 2
# Processed by: cddbd v1.4PL0 Copyright (c) Steve Scherf et al.
# Submitted via: CDex 1.51
#
DISCID=82094c0c
DTITLE=Elvin Bishop - Don't Let The Bossman Get You Down!
DYEAR=1900
DGENRE=Blues
TTITLE0=Fannie Mae
TTITLE1=Don't Let The Bossman Get You Down
TTITLE2=Murder In The First Degree
TTITLE3=Kissing In The Dark
TTITLE4=My Whiskey Head Buddies
TTITLE5=Stepping Up In Class
TTITLE6=You Got To Rock 'Em
TTITLE7=Come On In This House
TTITLE8=Soul Food
TTITLE9=Rollin' With My Blues
TTITLE10=Devil's Slide
TTITLE11=Just Your Fool
EXTD=
EXTT0=
EXTT1=
EXTT2=
EXTT3=
EXTT4=
EXTT5=
EXTT6=
EXTT7=
EXTT8=
EXTT9=
EXTT10=
EXTT11=
PLAYORDER=
